<?xml version="1.0" standalone="no"?>
<!DOCTYPE svg PUBLIC "-//W3C//DTD SVG 20010904//EN"
 "http://www.w3.org/TR/2001/REC-SVG-20010904/DTD/svg10.dtd">
<svg version="1.0" xmlns="http://www.w3.org/2000/svg"
 width="150.000000pt" height="150.000000pt" viewBox="0 0 150.000000 150.000000"
 preserveAspectRatio="xMidYMid meet">

<g transform="translate(0.000000,150.000000) scale(0.100000,-0.100000)"
fill="#000000" stroke="none">
<path d="M595 1464 c-89 -19 -233 -89 -307 -148 -174 -140 -278 -377 -265
-606 24 -421 403 -737 816 -680 273 37 499 217 592 470 144 397 -68 822 -476
950 -93 29 -262 36 -360 14z m192 -90 c3 -9 1 -24 -4 -33 -7 -12 -8 -23 -1
-35 15 -27 -2 -34 -19 -8 -19 27 -43 29 -43 2 0 -11 -4 -20 -10 -20 -5 0 -10
25 -10 55 l0 55 40 0 c28 0 43 -5 47 -16z m154 -40 c4 -16 7 -45 7 -64 l1 -35
-22 28 c-22 26 -57 37 -57 17 0 -5 -7 -10 -15 -10 -22 0 -19 8 21 57 40 49 56
51 65 7z m-402 -30 c15 -32 19 -50 12 -57 -7 -7 -15 0 -25 24 l-15 34 -1 -32
c0 -37 -6 -40 -38 -17 -24 17 -27 13 -12 -17 6 -11 8 -25 4 -31 -7 -11 -53 65
-54 90 0 17 30 15 52 -5 17 -15 18 -15 18 5 0 65 28 68 59 6z m555 -15 c42
-33 26 -99 -24 -99 -25 0 -70 21 -70 32 0 14 49 88 59 88 4 0 20 -9 35 -21z
m-724 -94 c37 -19 42 -25 27 -30 -10 -4 -21 -5 -24 -1 -11 11 -33 -16 -33 -40
0 -13 -4 -24 -9 -24 -10 0 -50 102 -44 113 8 13 37 7 83 -18z m850 -2 c0 -10
-72 -83 -82 -83 -17 0 -6 26 24 57 29 30 58 43 58 26z m-348 -130 c3 -74 1
-83 -14 -83 -15 0 -18 -9 -18 -51 0 -39 -7 -64 -31 -105 -16 -29 -34 -56 -40
-59 -5 -4 -9 27 -9 75 0 75 2 81 23 89 13 5 29 17 37 26 14 16 12 17 -20 9
-43 -10 -66 -10 -107 0 -43 10 -45 -11 -3 -27 l30 -11 0 -83 c0 -46 -2 -83 -4
-83 -9 0 -66 108 -66 124 0 9 -4 16 -10 16 -16 0 -11 -52 10 -97 21 -48 16
-53 -25 -21 l-28 22 18 -27 c10 -15 25 -32 34 -37 33 -19 -32 -10 -75 10 -32
16 -46 31 -58 61 -20 50 -20 52 4 46 11 -3 20 0 21 6 1 7 5 1 9 -13 7 -22 8
-23 9 -4 1 23 24 48 34 38 3 -3 10 4 17 15 6 12 15 19 21 16 5 -4 9 18 9 53 0
50 3 60 18 65 11 2 22 15 25 28 l6 24 -20 -24 c-20 -24 -23 -24 -13 4 6 16 62
50 70 42 2 -2 -6 -17 -18 -33 l-22 -29 25 20 c20 16 19 14 -4 -12 -37 -40 -34
-77 6 -81 l29 -4 -2 64 c-1 35 -2 66 -1 70 0 4 17 -9 37 -30 30 -30 33 -32 20
-9 -9 15 -12 27 -7 27 11 0 28 -21 33 -40 3 -16 18 -30 31 -30 4 0 8 37 8 83
2 96 7 77 11 -40z m-108 91 c22 -22 20 -41 -2 -21 -31 29 -79 19 -126 -24 -11
-10 -35 -22 -54 -25 -24 -5 -30 -9 -20 -15 10 -7 9 -9 -4 -9 -21 0 -27 -10
-41 -68 -10 -37 -18 -49 -40 -56 -21 -8 -31 -6 -44 7 -16 16 -16 17 4 17 11 0
25 6 30 13 17 20 33 77 22 77 -15 0 -10 19 11 40 13 13 33 20 56 20 21 0 33 4
29 10 -3 6 3 10 13 10 11 0 39 9 63 20 53 24 82 25 103 4z m-476 -110 c3 -13
0 -14 -19 -4 -19 11 -25 10 -36 -6 -12 -16 -11 -21 8 -35 40 -30 2 -31 -46 -1
-46 28 -51 46 -10 36 29 -7 44 25 20 43 -10 6 -14 17 -10 22 8 15 89 -32 93
-55z m1014 39 c47 -42 -6 -118 -62 -90 -14 7 -29 25 -34 39 -19 53 52 91 96
51z m-421 -207 c1 -17 2 -17 6 -3 6 24 22 21 33 -5 5 -13 9 -18 9 -12 1 18 51
4 51 -15 0 -50 -72 -111 -132 -111 -21 0 -21 0 5 28 37 38 34 50 -4 17 -39
-32 -46 -27 -20 16 14 22 21 51 21 83 0 42 2 47 15 36 8 -7 16 -22 16 -34z
m-421 -38 c0 -12 -14 -9 -29 5 -11 10 -12 8 -6 -12 5 -16 4 -21 -4 -17 -6 4
-11 26 -11 49 l0 42 25 -30 c13 -16 24 -33 25 -37z m609 10 c-1 -27 -3 -34 -6
-19 -4 18 -7 21 -13 10 -5 -7 -12 -11 -15 -7 -6 6 22 58 31 58 2 0 3 -19 3
-42z m-675 -69 c4 -4 5 -12 1 -19 -5 -8 -14 -6 -33 6 l-27 17 18 -26 c19 -30
22 -41 7 -32 -12 8 -50 80 -50 95 0 10 58 -18 84 -41z m771 14 c-17 -40 -55
-86 -55 -66 0 7 4 15 10 18 5 3 15 16 21 28 l12 22 -25 -22 c-28 -26 -38 -29
-38 -9 0 12 65 64 83 65 4 1 0 -16 -8 -36z m-702 -52 c-27 -36 -45 -51 -61
-51 l-23 0 20 26 c12 15 21 36 21 48 0 14 11 26 33 36 50 23 54 0 10 -59z
m607 20 c0 -14 10 -35 22 -48 l21 -23 -29 0 c-24 0 -34 8 -57 45 -16 25 -33
45 -38 45 -6 0 -6 8 0 19 10 18 12 18 45 2 26 -12 35 -22 36 -40z m-528 -58
c-9 -23 -35 -23 -45 1 -10 26 21 50 40 31 8 -8 10 -21 5 -32z m451 -3 c-6 -22
-51 -24 -56 -1 -2 9 4 23 12 32 13 13 18 13 32 1 9 -8 14 -22 12 -32z m-290
-6 c35 -10 15 -21 -30 -17 -61 6 -73 10 -73 24 0 10 53 6 103 -7z m187 6 c0
-10 -24 -17 -82 -23 -41 -3 -52 10 -15 17 12 3 31 7 42 9 37 8 55 7 55 -3z
m-397 -49 c5 -5 -14 -23 -42 -40 -27 -18 -52 -38 -54 -44 -6 -16 -27 38 -27
68 0 14 7 26 18 29 22 6 95 -3 105 -13z m596 13 c30 -6 32 -9 26 -38 -14 -71
-14 -70 -43 -43 -15 14 -42 32 -59 41 -18 9 -33 19 -33 21 0 4 52 21 71 24 4
1 21 -2 38 -5z m-511 -115 c29 -10 39 -7 97 25 l65 36 73 -36 c61 -30 76 -34
99 -25 16 6 34 25 43 43 l15 33 -6 -30 c-13 -70 -61 -80 -156 -34 l-69 34 -65
-34 c-60 -31 -68 -33 -104 -22 -27 8 -40 18 -44 35 -3 13 -8 32 -11 43 -3 10
3 1 13 -19 12 -27 27 -41 50 -49z m-86 -124 c29 -19 50 -25 93 -25 48 0 58 -3
62 -20 8 -32 25 -23 23 13 -3 50 -1 57 16 57 14 0 16 -8 10 -46 -4 -34 -3 -45
6 -42 8 3 11 20 9 46 -2 33 1 42 13 42 9 0 16 -6 17 -12 0 -10 2 -10 6 0 2 6
11 12 20 12 11 0 14 -10 12 -42 -2 -24 1 -43 8 -45 7 -3 9 11 6 42 -5 38 -3
45 11 45 14 0 17 -8 15 -42 -2 -26 1 -43 9 -46 7 -2 12 5 12 17 0 17 7 20 57
23 51 3 58 6 64 28 5 16 7 4 7 -35 -1 -33 -3 -48 -5 -32 -4 26 -7 27 -59 27
-39 0 -54 -4 -54 -14 0 -20 -26 -40 -35 -26 -5 8 -10 8 -20 0 -7 -6 -16 -7
-18 -3 -6 10 -48 10 -64 0 -7 -4 -14 -3 -17 1 -3 5 -16 7 -29 5 -18 -4 -26 0
-30 16 -8 32 -103 30 -157 -4 l-40 -25 0 55 c0 30 3 55 8 55 4 0 24 -11 44
-25z m495 -47 c-2 -13 -4 -3 -4 22 0 25 2 35 4 23 2 -13 2 -33 0 -45z m30 0
c-2 -13 -4 -5 -4 17 -1 22 1 32 4 23 2 -10 2 -28 0 -40z m30 10 c-3 -7 -5 -2
-5 12 0 14 2 19 5 13 2 -7 2 -19 0 -25z m188 4 c5 -12 18 -22 27 -22 10 0 18
-4 18 -10 0 -5 -13 -10 -29 -10 -36 0 -48 -15 -24 -29 12 -6 15 -13 8 -20 -7
-7 -24 2 -53 26 l-43 36 28 29 c31 33 54 33 68 0z m-923 6 c23 -19 33 -58 15
-58 -8 0 -17 9 -20 21 -4 15 -12 20 -29 17 -28 -4 -36 -37 -13 -54 9 -7 15
-18 13 -24 -6 -18 -58 29 -58 52 0 47 56 74 92 46z m111 -106 c23 -20 22 -49
-3 -62 -11 -6 -20 -20 -20 -31 0 -12 -5 -19 -12 -16 -7 2 -12 13 -11 23 1 10
0 25 -3 33 -4 11 -8 11 -23 -3 -32 -29 -32 -1 0 43 31 41 37 42 72 13z m677 3
c-24 -26 -21 -47 4 -26 8 7 17 8 20 3 3 -6 -1 -15 -9 -22 -24 -20 -6 -31 21
-14 36 24 43 7 9 -21 -17 -13 -33 -24 -37 -25 -3 0 -20 19 -38 43 l-31 42 28
22 c39 32 63 30 33 -2z m-595 -91 c-11 -28 -12 -40 -4 -50 19 -23 29 -16 48
29 15 32 20 38 26 25 8 -20 -13 -67 -37 -82 -26 -16 -68 8 -68 38 0 34 20 76
37 76 11 0 10 -7 -2 -36z m511 0 c16 -24 16 -27 -2 -51 -11 -14 -30 -30 -42
-34 -20 -8 -25 -4 -42 37 -24 56 -25 61 -2 67 45 12 72 7 88 -19z m-332 -14
c36 -13 33 -31 -4 -23 -37 7 -40 -4 -5 -17 31 -12 41 -35 25 -55 -16 -19 -41
-19 -66 -1 -25 19 -12 31 16 16 16 -9 25 -9 33 -1 8 8 2 14 -20 22 -38 13 -48
33 -27 54 18 18 16 18 48 5z m170 -46 c30 -55 30 -54 11 -54 -8 0 -15 5 -15
10 0 16 -47 12 -54 -5 -11 -30 -28 -16 -21 18 20 91 41 99 79 31z"/>
<path d="M720 1361 c0 -6 4 -12 9 -15 13 -8 42 4 35 15 -7 12 -44 12 -44 0z"/>
<path d="M906 1325 c-3 -8 -1 -15 4 -15 6 0 10 7 10 15 0 8 -2 15 -4 15 -2 0
-6 -7 -10 -15z"/>
<path d="M1045 1254 c-14 -22 -15 -28 -4 -35 19 -12 25 -11 43 7 12 12 13 20
6 35 -14 26 -24 24 -45 -7z"/>
<path d="M320 1174 c0 -8 5 -12 10 -9 6 4 8 11 5 16 -9 14 -15 11 -15 -7z"/>
<path d="M810 1005 c0 -8 5 -15 10 -15 6 0 10 7 10 15 0 8 -4 15 -10 15 -5 0
-10 -7 -10 -15z"/>
<path d="M812 928 c-7 -7 -12 -28 -12 -47 0 -44 16 -30 25 22 8 40 6 44 -13
25z"/>
<path d="M680 878 c0 -24 7 -53 15 -64 14 -17 15 -14 13 40 -4 72 -28 93 -28
24z"/>
<path d="M1242 1071 c-8 -4 -12 -19 -10 -32 2 -18 9 -24 28 -24 21 0 25 5 25
30 0 31 -19 42 -43 26z"/>
<path d="M682 415 c0 -16 2 -22 5 -12 2 9 2 23 0 30 -3 6 -5 -1 -5 -18z"/>
<path d="M722 420 c0 -14 2 -19 5 -12 2 6 2 18 0 25 -3 6 -5 1 -5 -13z"/>
<path d="M762 415 c0 -16 2 -22 5 -12 2 9 2 23 0 30 -3 6 -5 -1 -5 -18z"/>
<path d="M802 415 c0 -16 2 -22 5 -12 2 9 2 23 0 30 -3 6 -5 -1 -5 -18z"/>
<path d="M450 415 c0 -9 9 -15 21 -15 18 0 19 2 9 15 -7 8 -16 15 -21 15 -5 0
-9 -7 -9 -15z"/>
<path d="M738 397 c-3 -15 -2 -30 3 -32 12 -8 16 8 9 35 l-6 25 -6 -28z"/>
<path d="M450 374 c0 -14 3 -15 18 -3 9 7 19 15 21 16 2 2 -5 3 -17 3 -14 0
-22 -6 -22 -16z"/>
<path d="M1185 380 c-8 -13 4 -32 16 -25 12 8 12 35 0 35 -6 0 -13 -4 -16 -10z"/>
<path d="M385 280 c-8 -13 3 -30 21 -30 18 0 18 14 0 29 -10 8 -16 9 -21 1z"/>
<path d="M947 203 c-3 -4 0 -21 6 -36 11 -26 13 -27 32 -13 16 12 18 18 9 33
-12 20 -39 29 -47 16z"/>
<path d="M810 146 c0 -9 5 -16 10 -16 6 0 10 4 10 9 0 6 -4 13 -10 16 -5 3
-10 -1 -10 -9z"/>
</g>
</svg>
