<?xml version="1.0" standalone="no"?>
<!DOCTYPE svg PUBLIC "-//W3C//DTD SVG 20010904//EN"
 "http://www.w3.org/TR/2001/REC-SVG-20010904/DTD/svg10.dtd">
<svg version="1.0" xmlns="http://www.w3.org/2000/svg"
 width="1000.000000pt" height="1000.000000pt" viewBox="0 0 1000.000000 1000.000000"
 preserveAspectRatio="xMidYMid meet">

<g transform="translate(0.000000,1000.000000) scale(0.100000,-0.100000)"
fill="#000000" stroke="none">
<path d="M4645 9864 c-887 -67 -1744 -374 -2459 -881 -443 -314 -862 -733
-1173 -1173 -868 -1229 -1115 -2802 -667 -4249 294 -950 900 -1814 1693 -2415
611 -463 1305 -775 2021 -910 354 -66 525 -81 940 -81 277 1 388 5 505 18 431
52 742 123 1110 254 1201 428 2184 1306 2741 2448 260 533 401 1023 471 1635
25 218 25 792 0 1000 -77 634 -217 1117 -482 1655 -494 1005 -1320 1806 -2345
2272 -477 217 -931 343 -1480 409 -119 15 -748 27 -875 18z m508 -603 c83 -41
127 -111 127 -203 -1 -71 -28 -127 -84 -174 -25 -21 -46 -41 -46 -45 0 -4 34
-69 75 -145 53 -99 71 -140 62 -146 -17 -11 -135 -10 -155 1 -9 5 -46 68 -82
140 l-64 131 -83 0 -83 0 0 -135 c0 -154 4 -149 -101 -143 l-54 3 -3 360 c-1
198 0 366 3 373 4 11 46 13 223 10 202 -4 220 -5 265 -27z m1031 -151 c38 -11
70 -21 71 -22 4 -4 65 -572 79 -725 5 -60 5 -63 -17 -63 -12 0 -49 8 -82 18
l-60 18 -10 97 c-5 53 -14 101 -20 106 -10 9 -249 81 -270 81 -6 0 -33 -29
-59 -65 -74 -101 -66 -97 -142 -75 -36 10 -70 22 -75 27 -15 15 469 623 495
623 12 0 52 -9 90 -20z m-2716 -177 c22 -49 93 -198 157 -332 63 -134 114
-245 113 -246 -2 -2 -31 -17 -65 -33 -48 -25 -63 -29 -72 -19 -5 7 -57 111
-115 231 -80 167 -106 213 -110 195 -3 -13 -7 -127 -10 -253 -3 -126 -9 -233
-13 -237 -5 -4 -97 60 -207 142 -109 82 -200 148 -203 146 -2 -3 43 -104 101
-225 59 -121 106 -223 106 -226 0 -12 -123 -67 -131 -59 -8 8 -319 650 -319
659 0 7 162 84 177 84 8 0 89 -58 181 -129 l167 -129 6 187 c4 102 7 201 8
219 1 32 5 35 84 72 45 21 87 39 93 39 6 1 29 -38 52 -86z m3724 -257 c151
-96 197 -140 239 -230 67 -143 39 -306 -71 -416 -55 -56 -120 -88 -205 -103
-107 -18 -179 5 -358 115 -81 50 -150 95 -153 99 -3 5 58 106 134 226 76 120
165 260 196 311 33 54 63 91 70 89 7 -3 73 -44 148 -91z m-4807 -681 c187 -86
344 -161 350 -166 5 -6 -7 -26 -34 -53 -72 -73 -76 -74 -171 -26 -58 29 -88
39 -100 33 -10 -4 -61 -49 -114 -99 l-96 -90 35 -89 c19 -49 35 -94 35 -100 0
-15 -95 -105 -110 -105 -6 0 -15 12 -21 28 -20 49 -179 464 -225 587 l-45 120
65 63 c36 35 72 62 79 59 6 -3 165 -75 352 -162z m5702 -22 l55 -56 -189 -189
c-103 -104 -223 -221 -266 -260 l-78 -71 -57 57 -57 57 262 260 c145 142 265
259 269 259 3 0 31 -25 61 -57z m-2286 -114 c11 -22 4 -90 -11 -99 -9 -6 -18
-590 -9 -605 4 -5 4 -77 0 -160 l-6 -150 -32 -3 -33 -3 0 156 c0 115 3 157 13
160 15 6 21 605 6 605 -13 0 -11 94 3 108 19 19 56 14 69 -9z m-779 -108 c111
-43 165 -142 142 -260 -10 -50 -31 -36 -71 47 -59 120 -117 148 -288 139 -111
-5 -196 -28 -315 -84 -59 -28 -92 -53 -155 -118 -128 -131 -223 -198 -321
-224 -22 -6 -105 -15 -184 -20 -115 -7 -156 -14 -195 -31 -47 -22 -49 -23 -25
-30 14 -5 43 -9 65 -10 54 -2 110 -22 110 -39 0 -9 -30 -27 -73 -44 -95 -38
-163 -99 -201 -180 -40 -84 -57 -158 -75 -318 -8 -75 -21 -152 -29 -172 -23
-54 -85 -115 -151 -150 -58 -30 -66 -32 -171 -32 -97 1 -117 4 -167 27 -59 28
-98 72 -98 114 0 19 7 22 79 27 95 6 161 33 218 89 49 48 82 117 118 248 59
209 76 260 101 289 20 25 22 31 10 31 -27 0 -79 -25 -114 -55 -18 -15 -36 -25
-39 -21 -11 11 15 96 50 166 42 84 144 188 221 224 32 15 94 37 139 48 80 20
85 20 202 4 196 -26 231 -29 250 -19 14 8 8 12 -31 18 -27 4 -58 12 -69 17
-34 18 -75 61 -75 80 0 15 10 17 94 17 52 0 114 5 138 11 53 14 230 86 318
129 190 93 262 112 420 107 88 -2 128 -8 172 -25z m-43 -374 c22 -65 104 -190
173 -263 106 -112 243 -198 397 -249 79 -26 91 -42 84 -109 -6 -55 -5 -56 20
-56 25 0 26 3 29 58 l3 57 58 3 57 3 0 -61 c0 -53 2 -60 20 -60 14 0 20 -7 21
-22 1 -13 3 -36 5 -53 2 -16 2 -40 -1 -52 -5 -22 -10 -23 -114 -23 l-108 0 -7
-87 c-4 -49 -11 -202 -16 -342 l-10 -254 -46 -91 c-75 -146 -208 -379 -316
-551 -112 -180 -126 -200 -132 -194 -4 4 -9 606 -7 927 1 153 4 204 14 206 6
2 48 11 92 19 147 27 235 86 284 190 26 56 50 147 38 147 -2 0 -39 -16 -82
-35 -142 -65 -367 -125 -468 -125 -89 0 -371 77 -531 144 -21 9 -41 16 -44 16
-12 0 9 -105 30 -147 51 -101 140 -159 293 -190 l90 -18 3 -568 c1 -344 -1
-567 -7 -567 -19 0 -245 367 -375 609 -122 226 -115 193 -126 568 -6 181 -15
390 -20 467 -4 76 -6 144 -4 151 3 7 40 25 82 40 215 75 381 206 506 397 31
48 56 90 56 95 0 13 30 53 40 53 5 0 13 -15 19 -33z m-3316 -172 c169 -99 307
-184 307 -189 0 -16 -71 -126 -82 -126 -6 0 -63 30 -127 68 -64 37 -119 67
-123 67 -9 0 -158 -253 -158 -269 0 -6 54 -43 120 -81 66 -39 120 -74 120 -79
0 -14 -64 -125 -75 -130 -5 -2 -66 30 -135 71 -69 40 -201 118 -295 173 -235
137 -215 114 -171 194 20 36 40 66 44 66 4 0 61 -31 127 -69 65 -38 122 -68
126 -65 15 9 160 265 155 273 -3 5 -50 34 -104 65 -140 80 -139 79 -125 109
25 53 65 108 77 105 7 -2 151 -84 319 -183z m3157 103 c-56 -110 -151 -220
-244 -281 -64 -43 -73 -18 -27 78 15 33 47 84 70 113 l42 53 -33 -17 c-47 -24
-159 -140 -190 -196 -14 -26 -34 -70 -43 -98 -13 -38 -23 -52 -41 -56 -34 -9
-37 -3 -24 47 37 136 130 267 243 340 80 52 248 106 271 88 4 -4 -6 -36 -24
-71z m3695 27 c100 -28 195 -117 247 -232 17 -39 22 -68 22 -148 1 -89 -2
-107 -26 -158 -102 -218 -365 -293 -565 -160 -64 42 -101 86 -137 159 -74 151
-52 313 61 434 105 114 238 149 398 105z m-3218 -94 c39 -27 85 -68 103 -91
31 -39 110 -185 110 -202 0 -14 -24 -8 -78 19 -43 22 -59 37 -78 75 -13 26
-54 91 -89 144 -36 52 -65 97 -65 100 0 14 36 -2 97 -45z m-1063 -1186 c0 -22
-6 -80 -13 -130 -23 -154 0 -330 63 -495 47 -120 74 -171 161 -301 41 -62 74
-117 73 -121 -4 -12 -213 106 -298 169 -89 66 -207 186 -256 260 -19 29 -37
53 -39 53 -8 0 15 -51 60 -139 67 -128 160 -245 305 -384 72 -68 130 -127 130
-131 0 -17 -308 43 -429 83 -259 87 -420 211 -534 411 -60 105 -103 266 -98
368 2 46 112 82 153 50 10 -8 18 -37 22 -78 3 -36 14 -90 23 -120 l18 -55 6
110 c3 61 11 121 18 135 16 30 72 90 83 90 5 0 6 -48 2 -107 -10 -158 14 -253
91 -366 71 -105 88 -116 41 -27 -25 47 -52 114 -60 150 -31 130 -15 274 39
359 28 46 134 143 149 138 6 -2 12 -21 13 -43 7 -161 27 -245 88 -364 34 -65
75 -130 75 -119 0 3 -13 35 -29 71 -47 104 -64 182 -65 298 -1 100 1 109 32
172 42 87 71 110 131 106 l46 -3 -1 -40z m1543 26 c21 -13 42 -42 64 -88 32
-65 33 -74 33 -178 0 -122 -14 -181 -70 -302 -18 -40 -31 -73 -29 -73 2 0 21
28 42 63 77 122 122 267 123 392 0 81 9 94 46 67 57 -40 113 -108 141 -167 54
-118 39 -325 -33 -454 -41 -74 -18 -58 36 24 72 111 85 162 84 323 0 143 4
152 48 105 43 -46 51 -73 57 -188 l7 -110 17 55 c10 30 20 84 24 120 3 41 11
70 21 78 24 18 83 15 120 -8 30 -19 32 -23 32 -77 0 -102 -49 -255 -119 -372
-44 -74 -164 -195 -253 -254 -98 -64 -261 -127 -423 -162 -108 -24 -257 -46
-264 -39 -3 3 30 38 74 77 173 155 286 294 364 447 66 130 72 159 15 75 -61
-90 -197 -222 -299 -290 -98 -65 -231 -138 -245 -133 -6 2 18 46 53 98 120
180 175 297 217 465 27 109 32 298 11 417 -7 42 -11 84 -8 92 9 23 75 20 114
-3z m-2963 -149 c61 -109 86 -142 181 -244 43 -47 65 -78 65 -94 0 -36 -26
-82 -52 -90 -39 -12 -119 91 -184 236 l-25 55 5 -86 c3 -48 17 -124 30 -169
13 -46 22 -89 19 -97 -7 -17 -58 -17 -73 1 -24 30 -39 170 -40 363 0 169 4
223 16 223 1 0 28 -44 58 -98z m4340 72 c10 -26 7 -333 -5 -429 -13 -109 -25
-139 -60 -143 -44 -5 -53 18 -30 85 23 70 41 170 41 233 l0 45 -44 -90 c-67
-138 -130 -214 -168 -200 -19 8 -48 58 -48 85 0 14 29 55 74 106 86 96 140
172 185 262 32 64 44 74 55 46z m-5016 -495 c88 -81 177 -139 347 -225 137
-69 139 -71 148 -110 8 -38 3 -126 -9 -158 -3 -9 -14 -16 -23 -16 -32 0 -188
117 -298 224 -62 60 -113 106 -113 102 0 -34 140 -260 233 -376 33 -41 64 -81
70 -87 14 -19 -10 -43 -44 -43 -22 0 -39 13 -79 61 -146 176 -247 373 -291
569 -20 89 -23 120 -13 120 3 0 36 -28 72 -61z m5697 14 c-24 -185 -132 -417
-281 -610 -66 -84 -88 -99 -130 -89 -32 8 -30 28 4 68 96 111 218 293 259 388
l25 55 -109 -105 c-119 -117 -276 -232 -308 -228 -23 3 -32 35 -34 115 -2 84
8 97 105 142 139 65 285 158 375 237 46 40 88 73 92 73 5 1 5 -20 2 -46z
m-4565 -128 c21 -47 48 -98 59 -114 28 -39 27 -46 -16 -72 -114 -70 -257 -254
-397 -512 l-37 -67 -77 6 c-42 3 -124 1 -182 -5 -57 -5 -107 -8 -109 -5 -3 2
6 12 20 21 13 9 60 52 105 97 128 129 168 232 162 416 l-3 95 30 2 c129 11
228 57 328 153 40 38 73 70 75 70 1 0 20 -38 42 -85z m3454 34 c89 -94 206
-155 324 -168 l54 -6 2 -130 c3 -143 15 -190 75 -284 35 -55 115 -135 179
-181 24 -17 42 -34 39 -36 -2 -3 -57 0 -122 6 -65 6 -149 10 -188 8 l-70 -3
-74 130 c-129 223 -226 348 -332 425 -34 25 -61 48 -61 53 0 4 18 38 40 74 21
36 46 87 55 114 9 27 20 49 24 49 4 0 28 -23 55 -51z m-3194 -509 c17 -33 38
-63 47 -68 10 -6 46 -13 81 -17 35 -4 62 -12 62 -18 0 -6 -25 -36 -55 -67
l-54 -55 11 -72 c6 -40 9 -75 6 -79 -3 -3 -37 10 -75 30 l-70 35 -63 -35 c-85
-48 -91 -43 -73 46 l15 72 -56 57 c-31 31 -56 61 -56 67 0 6 33 15 72 22 80
12 84 16 131 101 15 29 32 49 37 46 6 -4 24 -33 40 -65z m2929 21 c41 -87 57
-99 141 -112 41 -6 77 -13 79 -15 3 -3 -23 -33 -56 -67 l-62 -62 12 -77 c6
-43 8 -81 4 -85 -4 -4 -39 10 -77 31 l-70 37 -70 -38 c-52 -28 -73 -34 -79
-25 -4 6 -3 46 2 88 l10 76 -59 59 c-32 32 -56 60 -53 63 2 2 37 9 78 15 41 7
78 14 82 17 5 2 25 36 45 74 20 39 40 70 44 70 3 0 17 -22 29 -49z m-2362
-206 c97 -33 224 -60 433 -90 96 -14 183 -28 193 -31 23 -7 56 -73 64 -129 7
-53 -2 -56 -41 -16 -16 16 -51 40 -80 52 -46 20 -73 23 -261 30 -202 6 -402
25 -418 39 -8 7 26 170 36 170 2 0 35 -11 74 -25z m1804 -50 c10 -39 18 -77
18 -85 1 -22 -161 -41 -424 -49 -232 -8 -264 -15 -337 -80 -41 -36 -52 -29
-42 26 9 51 30 90 57 108 13 8 101 26 197 40 209 29 330 55 425 88 39 13 74
23 79 23 5 -1 17 -33 27 -71z m-2879 -261 c144 -24 334 -96 345 -131 3 -7 -54
-42 -134 -82 -270 -138 -461 -275 -564 -406 -28 -36 -54 -65 -59 -65 -10 0
-62 123 -84 200 -20 67 -52 258 -61 362 l-7 77 54 16 c142 44 354 56 510 29z
m4237 1 c49 -9 109 -21 133 -28 l43 -13 -2 -91 c-2 -104 -33 -280 -70 -397
-28 -90 -59 -156 -72 -156 -5 0 -26 22 -46 50 -93 127 -308 284 -563 414 -89
45 -152 82 -149 89 5 17 115 71 195 96 156 50 367 64 531 36z m-3765 -320 c16
-38 54 -137 85 -220 l57 -150 207 -70 207 -70 163 82 c89 46 284 146 434 223
150 77 281 140 292 140 11 0 224 -102 472 -226 l451 -225 200 67 c135 45 203
73 213 87 8 11 44 110 81 219 40 118 73 202 82 206 8 3 22 1 30 -5 36 -22 36
-39 4 -124 -17 -46 -54 -151 -83 -232 -43 -122 -57 -150 -78 -161 -14 -8 -98
-35 -186 -61 -88 -25 -179 -53 -203 -61 -87 -29 -89 -28 -354 132 -142 86
-291 161 -494 250 -80 35 -114 45 -136 40 -17 -3 -130 -49 -251 -101 -172 -75
-261 -120 -408 -210 -157 -96 -194 -115 -228 -115 -45 0 -446 130 -467 152
-12 12 -47 102 -140 356 -45 123 -45 156 0 150 15 -2 29 -23 50 -73z m-471
-1117 c38 -24 158 -100 267 -170 l199 -128 398 -2 398 -3 17 -100 c19 -113 40
-175 67 -200 18 -15 22 -15 49 -1 16 8 42 30 57 47 30 37 30 50 -4 164 -24 78
-37 237 -27 308 4 27 18 59 32 77 22 26 32 30 76 30 41 0 54 -5 78 -28 70 -70
64 -250 -14 -443 -23 -56 -24 -64 -11 -89 16 -31 70 -80 89 -80 14 0 69 56 85
87 9 18 6 36 -14 96 -24 71 -55 226 -55 273 0 50 23 126 47 154 21 26 32 30
73 30 106 0 141 -105 104 -314 -8 -49 -26 -118 -40 -154 l-24 -65 25 -38 c14
-21 36 -46 50 -55 25 -16 27 -16 52 7 14 13 33 37 43 52 17 27 16 31 -12 120
-19 61 -31 124 -35 188 -8 129 1 182 39 224 26 31 36 35 78 35 41 0 52 -4 74
-30 14 -17 31 -50 37 -73 18 -69 -8 -244 -57 -373 l-23 -62 26 -40 c48 -73 87
-75 139 -6 26 34 27 38 16 77 -44 151 -53 200 -55 282 -2 111 7 156 39 195 22
26 33 30 73 30 55 0 81 -21 101 -84 20 -61 7 -222 -26 -331 -39 -132 -40 -137
-9 -173 40 -48 61 -57 90 -38 44 29 58 72 63 193 l5 113 391 2 391 3 3 168 2
167 35 0 35 0 0 -369 c0 -249 -3 -372 -11 -376 -5 -4 -21 -4 -34 -1 l-25 6 -2
163 -3 162 -355 0 -355 0 -6 -76 c-8 -98 -24 -143 -66 -190 -57 -63 -127 -63
-190 2 -35 35 -43 36 -74 3 -33 -36 -84 -57 -121 -48 -17 3 -50 24 -74 46
l-44 41 -44 -41 c-72 -66 -114 -65 -188 6 l-37 35 -44 -40 c-74 -68 -133 -65
-207 12 l-33 34 -45 -40 c-94 -82 -169 -73 -217 25 -13 28 -31 83 -40 121 -8
39 -18 80 -20 93 l-5 22 -367 0 -366 0 -264 -165 c-145 -91 -270 -165 -278
-165 -13 0 -15 49 -15 363 0 200 3 367 7 370 10 11 16 9 86 -35z m3590 -40
c16 -12 17 -39 15 -293 l-3 -280 -32 -3 -33 -3 0 289 c0 159 3 292 7 295 10
11 27 8 46 -5z m189 -70 c4 -10 3 -407 -1 -440 -1 -5 -14 -8 -31 -8 l-30 0 0
223 c0 123 3 227 7 230 11 12 51 8 55 -5z m166 -76 c9 -7 12 -43 10 -148 l-3
-139 -32 -3 -33 -3 0 144 c0 79 3 147 7 150 9 9 35 8 51 -1z m1154 -32 c5 0
27 -17 50 -37 53 -49 78 -103 78 -175 0 -66 -15 -58 167 -89 73 -12 138 -26
144 -30 8 -5 -3 -26 -35 -68 -26 -33 -51 -63 -56 -66 -5 -3 -73 8 -151 25 -78
16 -146 30 -150 30 -9 0 -99 -108 -99 -118 0 -4 22 -23 47 -42 26 -19 73 -57
105 -83 l58 -48 -45 -60 c-26 -32 -49 -59 -53 -59 -9 0 -545 427 -556 444 -6
9 20 50 89 137 115 146 170 205 208 225 41 22 106 31 152 22 22 -4 43 -7 47
-8z m-6120 -73 c143 -64 238 -211 238 -369 l0 -68 -37 0 c-21 0 -55 3 -75 6
l-38 7 0 56 c0 134 -100 241 -225 241 -129 0 -230 -99 -229 -225 1 -110 73
-200 182 -227 l57 -14 -3 -55 c-5 -90 -7 -92 -60 -84 -114 16 -239 111 -294
223 -31 62 -33 73 -33 172 0 89 3 112 23 151 46 93 123 162 223 199 76 28 192
23 271 -13z m5136 -38 c3 -63 2 -67 -20 -71 -43 -8 -48 0 -48 73 l0 70 33 -3
32 -3 3 -66z m286 -539 c21 -27 35 -54 31 -59 -3 -6 -72 -61 -153 -122 -81
-62 -149 -114 -151 -115 -4 -3 28 -52 68 -103 l18 -24 101 77 c56 42 105 76
109 76 12 0 73 -81 73 -96 0 -7 -34 -39 -76 -71 -42 -32 -88 -67 -101 -78
l-23 -20 46 -57 c25 -32 50 -58 55 -58 5 0 77 52 160 115 83 63 155 115 159
115 12 0 81 -93 77 -104 -6 -19 -435 -338 -446 -332 -18 12 -424 549 -425 564
-1 13 416 342 433 342 4 0 24 -22 45 -50z m-4708 -101 c82 -60 160 -122 172
-137 78 -89 82 -222 9 -300 -47 -51 -79 -66 -151 -71 l-70 -6 -18 -125 c-23
-170 -27 -190 -40 -190 -5 0 -37 19 -69 43 -39 28 -59 49 -59 64 0 11 9 74 20
138 11 64 20 127 20 138 -1 15 -18 34 -55 60 -29 20 -58 37 -62 37 -5 0 -44
-47 -87 -105 l-77 -106 -28 17 c-16 9 -45 31 -65 48 l-36 31 213 288 c116 158
217 287 223 287 5 0 78 -50 160 -111z m681 -424 c51 -23 53 -25 42 -52 -5 -15
-42 -109 -81 -208 -79 -198 -87 -246 -52 -305 23 -41 94 -80 143 -80 46 0 100
29 127 67 11 17 55 119 98 227 43 108 81 198 85 201 11 6 141 -47 141 -58 0
-13 -146 -381 -170 -426 -26 -52 -107 -125 -162 -145 -107 -41 -276 1 -362 90
-64 66 -80 107 -80 204 0 83 2 89 88 303 99 245 82 227 183 182z m3139 -46
c79 -14 146 -52 204 -116 63 -69 90 -140 90 -238 0 -126 -57 -230 -165 -305
-44 -30 -301 -140 -328 -140 -8 0 -17 8 -20 18 -3 9 -55 136 -117 282 -149
354 -151 358 -137 367 35 22 299 126 337 133 65 11 70 11 136 -1z m-2014 -260
c70 -15 164 -60 211 -101 l38 -33 -41 -47 c-23 -27 -48 -48 -57 -48 -8 0 -29
11 -45 25 -66 56 -170 91 -233 79 -69 -13 -96 -71 -52 -112 12 -11 69 -34 127
-51 137 -41 187 -67 228 -121 32 -42 34 -47 30 -115 -2 -57 -9 -80 -29 -111
-75 -112 -280 -137 -452 -55 -67 32 -147 95 -147 115 0 7 21 34 47 59 l46 46
48 -43 c59 -53 102 -74 177 -88 74 -13 131 4 150 46 29 60 -4 87 -178 142
-171 54 -220 100 -220 206 0 165 145 250 352 207z m1172 -335 c103 -184 186
-337 184 -339 -2 -3 -37 -9 -78 -15 -87 -12 -82 -16 -140 92 -35 66 -45 77
-63 73 -12 -2 -65 -9 -117 -15 -160 -18 -144 -9 -171 -110 -12 -50 -25 -94
-28 -99 -8 -12 -143 -31 -153 -22 -4 3 4 47 17 96 134 504 167 623 175 642 9
22 30 27 140 31 l45 2 189 -336z"/>
<path d="M4828 9144 c-5 -4 -8 -47 -8 -96 l0 -88 110 0 c79 0 119 4 140 15 57
30 66 87 21 137 l-29 33 -114 3 c-62 2 -116 0 -120 -4z"/>
<path d="M6037 8845 c-42 -55 -77 -102 -77 -105 0 -5 157 -51 174 -50 9 0 1
138 -12 215 l-7 40 -78 -100z"/>
<path d="M6977 8375 c-65 -102 -115 -190 -112 -196 11 -17 109 -76 149 -89 57
-18 137 -9 185 23 66 44 95 97 99 181 5 100 -20 144 -119 213 -41 29 -76 52
-79 53 -3 0 -58 -84 -123 -185z"/>
<path d="M2091 7918 c12 -29 32 -82 45 -117 14 -36 26 -67 29 -69 5 -5 135
110 135 120 0 7 -212 118 -225 118 -2 0 5 -24 16 -52z"/>
<path d="M4871 7171 c-75 -98 -166 -182 -283 -262 l-91 -62 7 -66 c3 -36 6
-107 6 -157 l0 -92 42 -17 c62 -25 254 -72 326 -80 l62 -7 0 411 c0 226 -2
411 -4 411 -2 0 -31 -36 -65 -79z"/>
<path d="M5407 6803 c-4 -3 -7 -58 -7 -120 l0 -115 28 6 c15 3 44 8 65 12 25
4 37 12 38 23 0 9 3 46 8 84 4 37 5 71 2 75 -4 4 -26 14 -51 21 -25 7 -52 14
-61 17 -8 2 -18 1 -22 -3z"/>
<path d="M5464 6249 c-16 -17 -48 -44 -71 -60 l-43 -30 0 -282 c1 -323 -6
-314 87 -132 54 105 56 113 64 215 11 138 11 320 1 320 -5 0 -21 -14 -38 -31z"/>
<path d="M4521 5998 c0 -90 4 -221 8 -293 l8 -130 86 -141 c139 -226 123 -254
131 231 3 230 4 420 2 423 -3 2 -37 10 -77 18 -39 7 -87 23 -106 34 -19 11
-38 20 -44 20 -5 0 -9 -67 -8 -162z"/>
<path d="M8335 7178 c-32 -11 -92 -53 -113 -78 -26 -31 -52 -96 -52 -134 -1
-208 237 -307 393 -162 102 94 83 278 -36 350 -54 33 -139 44 -192 24z"/>
<path d="M4524 2918 c-13 -26 -15 -51 -11 -137 6 -112 23 -201 37 -201 15 0
49 124 56 203 7 83 -6 141 -36 157 -26 14 -28 14 -46 -22z"/>
<path d="M4806 2928 c-8 -13 -18 -41 -21 -63 -7 -45 19 -225 37 -258 11 -20
13 -17 31 38 28 87 30 254 3 284 -24 27 -32 26 -50 -1z"/>
<path d="M5087 2932 c-23 -25 -39 -107 -32 -161 11 -82 37 -191 45 -191 23 0
66 229 55 288 -7 39 -30 82 -44 82 -4 0 -15 -8 -24 -18z"/>
<path d="M5354 2925 c-31 -47 -28 -186 7 -309 8 -30 13 -36 20 -25 16 29 39
165 39 231 0 102 -33 154 -66 103z"/>
<path d="M3002 2803 l3 -108 168 -3 c99 -1 166 1 163 7 -7 10 -320 211 -330
211 -4 0 -5 -48 -4 -107z"/>
<path d="M3000 2515 c0 -58 4 -105 8 -105 4 0 46 24 93 53 46 29 119 74 162
101 42 26 77 49 77 52 0 2 -76 4 -170 4 l-170 0 0 -105z"/>
<path d="M7990 2623 c-8 -3 -23 -13 -34 -22 -28 -24 -126 -148 -126 -160 0
-10 119 -111 131 -111 3 0 36 38 73 85 78 99 88 138 45 180 -26 25 -64 38 -89
28z"/>
<path d="M2542 1858 l-52 -73 22 -18 c13 -9 57 -40 98 -68 64 -44 79 -50 110
-45 19 3 43 15 53 27 17 21 23 73 11 103 -5 14 -174 146 -186 146 -3 0 -28
-33 -56 -72z"/>
<path d="M6360 1386 c-95 -34 -100 -37 -100 -51 0 -15 149 -376 160 -389 13
-13 128 35 172 73 69 59 93 142 67 235 -16 56 -92 129 -151 144 -63 16 -73 15
-148 -12z"/>
<path d="M5422 1090 c-18 -49 -54 -211 -49 -217 8 -7 149 6 165 16 9 5 -5 38
-47 116 -55 101 -61 107 -69 85z"/>
</g>
</svg>
