<?xml version="1.0" standalone="no"?>
<!DOCTYPE svg PUBLIC "-//W3C//DTD SVG 20010904//EN"
 "http://www.w3.org/TR/2001/REC-SVG-20010904/DTD/svg10.dtd">
<svg version="1.0" xmlns="http://www.w3.org/2000/svg"
 width="100.000000pt" height="100.000000pt" viewBox="0 0 100.000000 100.000000"
 preserveAspectRatio="xMidYMid meet">

<g transform="translate(0.000000,100.000000) scale(0.100000,-0.100000)"
fill="#000000" stroke="none">
<path d="M406 979 c-141 -29 -288 -144 -345 -271 -115 -252 -14 -527 237 -646
76 -37 79 -37 202 -37 124 0 126 0 203 37 105 50 185 130 235 235 37 77 37 79
37 203 0 123 0 126 -37 202 -60 126 -157 215 -284 258 -70 25 -180 33 -248 19z
m120 -91 c1 -39 -9 -50 -20 -23 -7 20 -26 19 -26 -1 0 -8 -4 -12 -10 -9 -11 7
-14 58 -3 69 4 4 19 6 33 4 22 -3 25 -8 26 -40z m104 -20 c-1 -35 -2 -40 -11
-25 -8 14 -18 17 -36 12 l-25 -6 22 31 c31 44 50 39 50 -12z m-272 7 c17 -36
14 -54 -3 -31 -14 18 -15 18 -15 2 0 -13 -5 -16 -19 -11 -16 5 -18 2 -14 -15
8 -30 -4 -24 -22 10 -17 33 -11 60 8 41 16 -16 24 -14 30 9 7 27 21 25 35 -5z
m388 -38 c12 -37 -40 -63 -65 -33 -10 11 -9 21 4 45 14 27 18 29 35 18 11 -6
23 -20 26 -30z m-476 -60 c0 -5 -6 -7 -14 -4 -18 7 -36 -11 -29 -29 3 -8 1
-14 -4 -14 -11 0 -34 70 -27 81 6 10 74 -21 74 -34z m540 15 c0 -14 -49 -56
-57 -49 -3 4 4 18 17 32 24 25 40 32 40 17z m-237 -138 c-7 -6 -13 -26 -13
-44 0 -41 -11 -34 -12 8 -1 28 -3 29 -29 22 -28 -8 -29 -8 -29 32 0 36 -2 39
-16 27 -13 -10 -17 -10 -25 2 -6 9 -4 18 7 26 20 15 41 11 60 -13 13 -16 15
-16 10 -1 -8 27 2 20 24 -15 l20 -33 2 65 1 65 6 -65 c4 -46 2 -68 -6 -76z
m-69 120 c9 -3 16 -10 16 -15 0 -5 -8 -4 -18 2 -15 9 -25 8 -48 -4 -16 -9 -40
-22 -54 -29 -37 -19 -47 -31 -55 -67 -7 -35 -25 -47 -52 -36 -16 6 -15 8 5 16
12 4 23 16 23 26 1 10 2 25 3 33 2 25 16 40 39 41 12 0 40 9 62 19 45 21 56
23 79 14z m-314 -74 c0 -5 -6 -7 -14 -4 -19 7 -32 -16 -15 -27 28 -17 0 -20
-33 -3 -22 11 -28 19 -18 21 42 12 44 13 32 25 -22 22 -12 29 18 13 17 -9 30
-20 30 -25z m674 24 c27 -26 16 -64 -18 -64 -43 0 -63 49 -28 69 23 14 28 14
46 -5z m-418 -66 c-5 -24 -2 -31 14 -35 17 -5 20 -14 20 -59 0 -30 -2 -54 -5
-54 -2 0 -14 18 -25 40 -22 43 -29 157 -9 144 6 -4 9 -19 5 -36z m97 -65 c4
-24 -15 -83 -28 -83 -3 0 -5 25 -5 55 0 40 4 55 14 55 7 0 16 -12 19 -27z
m-102 -74 c10 -19 9 -20 -13 -8 l-23 12 20 -23 20 -23 -25 8 c-39 11 -72 35
-77 56 -7 27 -5 32 12 35 9 1 26 9 38 17 21 14 22 13 29 -20 5 -19 13 -43 19
-54z m202 58 c4 3 7 -7 5 -22 -3 -29 -36 -58 -78 -71 l-25 -7 20 23 20 23 -22
-12 c-22 -11 -22 -11 -8 24 8 19 15 43 15 55 0 20 0 20 32 0 17 -10 36 -16 41
-13z m-358 -10 c-5 -16 -4 -18 3 -8 6 8 12 9 16 3 7 -11 -18 -24 -28 -15 -11
11 -7 55 4 48 6 -4 8 -16 5 -28z m435 6 c-1 -24 -2 -26 -11 -10 -5 9 -7 22 -4
27 10 17 15 11 15 -17z m-20 -13 c0 -5 -5 -10 -11 -10 -5 0 -7 5 -4 10 3 6 8
10 11 10 2 0 4 -4 4 -10z m-440 -48 c0 -12 -2 -12 -17 -1 -15 13 -15 12 -4
-11 l12 -25 -20 24 c-30 34 -28 54 4 39 14 -6 25 -18 25 -26z m520 24 c0 -8
-9 -24 -21 -37 l-20 -24 12 25 c11 23 11 24 -4 11 -15 -11 -17 -11 -17 1 0 12
25 31 48 37 1 1 2 -5 2 -13z m-450 0 c0 -16 -44 -76 -56 -76 -16 0 -19 16 -4
25 6 3 10 15 10 25 0 16 12 24 43 29 4 0 7 -1 7 -3z m371 -6 c5 0 9 -9 9 -19
0 -11 5 -23 10 -26 15 -9 12 -25 -4 -25 -8 0 -24 15 -35 34 -25 40 -26 50 -5
42 9 -3 20 -6 25 -6z m-337 -61 c-5 -9 -34 -13 -34 -5 0 2 3 12 6 20 5 13 9
14 20 5 8 -6 11 -15 8 -20z m296 -6 c0 -15 -21 -13 -32 2 -4 5 -2 15 4 23 9
11 13 11 19 0 5 -7 9 -19 9 -25z m-195 -3 c17 -7 16 -9 -10 -9 -16 0 -37 4
-45 9 -12 8 -10 10 10 9 14 0 34 -4 45 -9z m115 0 c-8 -5 -28 -10 -45 -10 -23
0 -27 3 -15 10 8 5 29 10 45 10 23 0 27 -3 15 -10z m-250 -29 c0 -6 -66 -51
-75 -51 -3 0 -5 13 -5 29 0 20 6 31 18 33 22 5 62 -2 62 -11z m394 13 c14 -6
24 -64 11 -64 -10 0 -75 45 -75 52 0 4 10 9 23 11 12 2 23 5 24 6 1 0 8 -2 17
-5z m-339 -78 c9 -3 34 3 55 14 22 11 47 20 57 20 10 -1 1 -7 -20 -14 -20 -8
-43 -19 -51 -25 -21 -18 -66 -2 -77 26 -13 36 -10 42 6 12 8 -15 22 -29 30
-33z m256 22 c-13 -36 -52 -43 -93 -18 -38 23 -30 27 11 6 36 -19 68 -10 76
21 3 14 8 23 11 21 2 -3 0 -17 -5 -30z m-315 -103 c10 -8 38 -15 62 -15 23 0
42 -3 42 -8 0 -4 -18 -6 -40 -4 -26 3 -49 -2 -65 -12 -33 -22 -35 -21 -35 19
0 39 7 42 36 20z m160 6 c-4 -5 -2 -20 4 -33 9 -22 9 -21 7 7 -2 25 2 29 27
32 26 2 28 0 24 -28 -3 -16 -1 -29 4 -29 4 0 8 7 8 15 0 11 11 15 40 15 30 0
40 4 40 16 0 8 5 12 10 9 6 -3 10 -17 10 -30 0 -13 -4 -27 -10 -30 -5 -3 -10
1 -10 9 0 21 -65 22 -73 2 -4 -9 -25 -13 -72 -13 -36 0 -60 4 -54 8 7 4 9 15
5 24 -8 22 1 35 25 35 11 0 18 -4 15 -9z m191 -33 c-3 -7 -5 -2 -5 12 0 14 2
19 5 13 2 -7 2 -19 0 -25z m20 0 c-3 -8 -6 -5 -6 6 -1 11 2 17 5 13 3 -3 4
-12 1 -19z m133 2 c25 -25 25 -30 -1 -30 -18 0 -19 -2 -9 -15 20 -24 -10 -19
-37 7 -21 20 -22 23 -6 40 21 23 28 23 53 -2z m-610 -10 c13 -24 5 -26 -17 -5
-12 12 -18 13 -29 4 -12 -10 -12 -15 3 -32 17 -19 17 -19 -2 -16 -21 4 -31 30
-21 55 8 21 54 17 66 -6z m512 -52 c-17 -17 -15 -28 3 -22 11 5 13 2 9 -11 -6
-15 -4 -16 14 -6 26 14 29 4 5 -15 -25 -19 -30 -17 -49 11 -16 24 -16 27 1 45
10 11 21 18 23 15 3 -3 0 -11 -6 -17z m-448 -6 c15 -18 15 -21 -9 -48 -24 -28
-25 -28 -25 -6 0 19 -4 22 -21 17 l-22 -7 22 31 c26 36 32 37 55 13z m51 -62
c-5 -23 -3 -30 9 -30 8 0 18 9 21 20 6 19 25 28 25 12 0 -15 -31 -52 -44 -52
-26 0 -40 28 -28 55 16 34 25 31 17 -5z m335 15 c15 -18 10 -45 -13 -59 -15
-9 -21 -7 -33 8 -26 36 -18 57 27 65 4 0 12 -6 19 -14z m-194 -27 c5 -8 0 -9
-14 -6 -25 7 -30 -7 -7 -16 19 -7 20 -32 1 -39 -8 -3 -22 1 -33 9 -17 13 -16
14 12 9 28 -5 29 -5 8 6 -32 17 -30 49 1 49 14 0 28 -5 32 -12z m96 -26 l21
-33 -28 7 c-18 4 -30 2 -36 -7 -14 -24 -19 -4 -7 34 13 44 22 43 50 -1z"/>
<path d="M488 903 c7 -3 16 -2 19 1 4 3 -2 6 -13 5 -11 0 -14 -3 -6 -6z"/>
<path d="M696 834 c-8 -21 -1 -28 19 -20 9 3 15 11 13 18 -7 19 -25 20 -32 2z"/>
<path d="M827 714 c-14 -15 -6 -34 14 -34 14 0 19 5 17 17 -3 18 -20 27 -31
17z"/>
<path d="M450 588 c0 -13 5 -30 10 -38 7 -11 10 -5 10 23 0 20 -4 37 -10 37
-5 0 -10 -10 -10 -22z"/>
<path d="M300 280 c0 -5 5 -10 11 -10 5 0 7 5 4 10 -3 6 -8 10 -11 10 -2 0 -4
-4 -4 -10z"/>
<path d="M300 249 c0 -5 5 -7 10 -4 6 3 10 8 10 11 0 2 -4 4 -10 4 -5 0 -10
-5 -10 -11z"/>
<path d="M526 275 c-3 -9 -6 -22 -5 -28 0 -7 5 -1 10 12 5 13 8 26 5 28 -2 2
-6 -3 -10 -12z"/>
<path d="M460 250 c0 -5 5 -10 10 -10 6 0 10 5 10 10 0 6 -4 10 -10 10 -5 0
-10 -4 -10 -10z"/>
<path d="M785 250 c-3 -5 1 -10 9 -10 9 0 16 5 16 10 0 6 -4 10 -9 10 -6 0
-13 -4 -16 -10z"/>
<path d="M250 180 c0 -5 7 -10 16 -10 8 0 12 5 9 10 -3 6 -10 10 -16 10 -5 0
-9 -4 -9 -10z"/>
<path d="M632 123 c2 -10 10 -18 18 -18 22 0 18 29 -3 33 -14 3 -18 -1 -15
-15z"/>
</g>
</svg>
