<?xml version="1.0" standalone="no"?>
<!DOCTYPE svg PUBLIC "-//W3C//DTD SVG 20010904//EN"
 "http://www.w3.org/TR/2001/REC-SVG-20010904/DTD/svg10.dtd">
<svg version="1.0" xmlns="http://www.w3.org/2000/svg"
 width="300.000000pt" height="300.000000pt" viewBox="0 0 300.000000 300.000000"
 preserveAspectRatio="xMidYMid meet">

<g transform="translate(0.000000,300.000000) scale(0.100000,-0.100000)"
fill="#000000" stroke="none">
<path d="M1335 2954 c-372 -57 -627 -181 -870 -428 -211 -213 -334 -438 -397
-729 -32 -146 -32 -447 -1 -587 134 -602 597 -1046 1193 -1145 150 -26 425
-16 570 18 271 65 494 191 695 392 208 207 338 446 402 738 23 105 26 453 4
562 -55 279 -202 557 -400 754 -204 203 -455 340 -736 402 -88 20 -384 34
-460 23z m202 -174 c51 -18 62 -69 25 -113 -14 -16 -14 -21 3 -55 11 -20 21
-40 23 -44 2 -5 -8 -8 -21 -8 -19 0 -31 11 -51 45 -36 61 -64 62 -68 3 -2 -36
-7 -44 -25 -46 -23 -3 -23 -2 -23 112 l0 116 54 0 c29 0 67 -5 83 -10z m340
-54 c5 -5 24 -228 20 -233 -15 -14 -46 10 -49 39 -3 27 -9 33 -46 44 -41 12
-44 11 -59 -12 -16 -25 -29 -29 -52 -15 -10 6 4 30 60 100 65 83 75 92 98 86
14 -4 27 -8 28 -9z m-769 -227 c-23 -15 -27 -11 -62 59 l-35 67 -1 -79 c0 -89
9 -87 -85 -18 l-46 34 33 -67 c32 -65 33 -67 13 -81 -18 -13 -22 -9 -67 87
-27 56 -47 103 -46 104 2 1 13 8 26 14 21 11 29 8 78 -29 l54 -41 0 65 c0 61
2 66 28 80 l27 15 48 -101 c38 -79 46 -103 35 -109z m1110 50 c53 -76 3 -169
-91 -169 -41 0 -141 56 -130 73 3 7 31 49 60 95 l53 83 43 -25 c23 -13 52 -39
65 -57z m-1484 -158 c87 -40 88 -42 71 -61 -16 -17 -20 -18 -44 -6 -24 13 -29
12 -60 -14 -31 -26 -33 -31 -23 -58 9 -25 7 -33 -9 -47 -18 -17 -19 -16 -27 6
-5 13 -24 63 -42 111 -32 84 -33 89 -16 107 20 22 17 23 150 -38z m1629 -93
c-73 -73 -78 -77 -95 -61 -18 16 -15 20 59 95 73 73 78 77 95 61 18 -16 15
-20 -59 -95z m-628 -95 c0 -87 4 -177 9 -200 l9 -43 -31 0 c-38 0 -42 -11 -42
-115 0 -91 -7 -108 -107 -270 l-43 -69 0 171 0 171 30 7 c40 9 90 52 90 77 0
15 -4 18 -17 13 -96 -40 -155 -43 -245 -15 -34 11 -64 20 -65 20 -2 0 -3 -9
-3 -19 0 -25 51 -67 90 -76 l30 -7 0 -171 0 -172 -39 60 c-21 33 -54 92 -74
130 -35 68 -36 73 -40 211 l-5 142 39 18 c59 26 98 58 135 110 l33 46 15 -30
c24 -47 76 -93 133 -119 40 -18 53 -30 54 -46 0 -21 1 -20 10 3 8 19 17 178
19 328 0 1 3 2 8 2 4 0 7 -71 7 -157z m-205 107 c21 -21 28 -70 10 -70 -5 0
-10 5 -10 12 0 28 -33 48 -82 48 -62 0 -106 -19 -160 -68 -58 -53 -78 -62
-135 -62 -62 0 -87 -15 -41 -24 l33 -7 -37 -20 c-46 -24 -66 -59 -74 -136 -9
-76 -43 -113 -104 -113 -48 0 -80 14 -80 35 0 10 10 15 31 15 42 0 69 33 95
119 21 69 20 83 -4 59 -22 -22 -14 23 11 59 34 52 95 77 165 68 l57 -7 -25 21
-25 20 40 1 c23 0 72 15 115 34 93 42 187 49 220 16z m-1012 -159 c75 -44 78
-47 62 -71 -8 -13 -15 -12 -50 7 l-40 21 -24 -41 -25 -41 40 -24 c33 -20 38
-26 29 -43 -6 -10 -13 -19 -16 -19 -3 0 -48 25 -100 55 -85 50 -93 58 -84 75
13 25 15 25 56 -1 l33 -20 26 40 c14 22 25 42 25 44 0 1 -16 11 -35 21 -37 20
-43 34 -23 54 9 9 16 9 32 -1 12 -8 54 -33 94 -56z m913 15 c-12 -19 -33 -41
-46 -50 -23 -15 -25 -15 -25 0 0 10 7 26 17 36 9 10 12 18 6 18 -14 0 -37 -28
-58 -70 -23 -45 -32 -22 -9 25 18 38 52 66 99 82 38 13 42 2 16 -41z m1157 18
c32 -21 55 -79 48 -119 -9 -44 -55 -85 -102 -92 -53 -7 -104 28 -123 83 -13
37 -12 44 5 80 33 69 108 90 172 48z m-960 -54 c12 -18 22 -37 22 -43 0 -19
-41 19 -67 63 l-27 45 24 -16 c14 -9 35 -31 48 -49z m-361 -378 c0 -81 22
-151 73 -223 12 -16 19 -29 15 -29 -13 0 -93 55 -129 89 l-38 36 17 -34 c9
-18 41 -58 70 -88 l53 -55 -46 7 c-25 4 -71 16 -102 27 -98 36 -179 143 -168
221 5 35 41 29 49 -8 5 -21 7 -24 8 -9 0 12 9 32 20 45 l19 23 -1 -49 c0 -30
6 -62 17 -80 14 -25 15 -26 9 -5 -17 52 -9 117 16 144 32 34 41 33 41 -6 1
-18 7 -46 14 -63 12 -28 12 -25 8 33 -4 50 -1 67 13 82 34 38 43 25 42 -58z
m479 52 c18 -27 21 -60 11 -109 l-6 -30 14 30 c8 17 14 45 15 63 0 39 9 40 41
6 20 -21 24 -36 24 -85 -1 -43 2 -54 9 -41 5 9 10 38 10 65 0 52 12 50 33 -6
l11 -32 1 33 c1 29 4 33 24 30 52 -7 24 -121 -47 -186 -45 -42 -122 -76 -198
-87 l-46 -7 53 55 c29 30 61 70 70 88 l17 34 -38 -36 c-40 -37 -129 -97 -123
-82 2 4 22 44 44 87 37 74 40 85 39 158 -2 85 11 101 42 52z m-898 -28 c6 -13
25 -40 42 -60 19 -21 30 -42 26 -51 -9 -24 -23 -18 -52 23 l-26 37 5 -30 c3
-16 9 -38 12 -47 5 -12 2 -18 -8 -18 -17 0 -27 41 -27 116 0 58 10 69 28 30z
m1302 -30 c0 -75 -10 -116 -27 -116 -10 0 -13 6 -8 18 9 22 17 92 9 72 -12
-28 -45 -70 -55 -70 -24 0 -19 33 11 66 17 20 36 47 42 60 18 39 28 28 28 -30z
m-1398 -163 c34 -13 38 -19 38 -49 0 -19 -3 -34 -8 -34 -11 0 -53 29 -91 64
l-33 31 15 -30 c8 -16 29 -48 47 -70 32 -40 25 -62 -9 -30 -27 24 -78 124 -86
168 l-8 39 49 -37 c26 -20 65 -44 86 -52z m1593 50 c-8 -44 -59 -145 -86 -168
-36 -33 -38 -9 -3 40 58 82 58 89 -1 41 -31 -25 -60 -46 -65 -46 -6 0 -10 15
-10 33 0 29 5 35 64 65 35 18 72 42 81 53 25 27 28 24 20 -18z m-1356 -31 c11
-26 9 -31 -28 -70 -22 -22 -52 -64 -68 -92 l-28 -50 -54 0 -55 0 31 33 c42 44
53 69 53 116 0 35 3 41 20 41 25 0 72 23 89 44 16 19 25 15 40 -22z m1106 -18
c32 -6 35 -9 35 -39 0 -47 16 -85 53 -122 l31 -33 -55 0 -54 0 -43 70 c-24 39
-56 80 -72 91 l-28 21 20 34 20 34 29 -25 c16 -13 45 -27 64 -31z m-999 -134
c18 0 18 -14 0 -29 -7 -6 -11 -22 -8 -36 4 -24 3 -25 -21 -14 -18 8 -30 8 -47
-1 -21 -11 -22 -10 -18 14 3 15 0 31 -8 37 -20 16 -17 29 6 29 12 0 25 10 32
25 l11 24 19 -24 c11 -14 26 -25 34 -25z m849 20 c4 -13 15 -20 31 -20 28 0
31 -12 8 -31 -8 -7 -14 -22 -12 -34 4 -19 0 -21 -43 -21 -44 0 -48 2 -43 21 3
13 -1 27 -10 34 -22 18 -20 31 4 31 10 0 24 9 30 20 6 11 15 20 20 20 5 0 12
-9 15 -20z m-645 -66 c36 -7 74 -14 85 -14 27 0 41 -11 50 -38 7 -23 6 -23
-17 -9 -13 9 -63 18 -120 22 l-98 7 0 30 c0 25 3 29 18 23 9 -4 46 -13 82 -21z
m470 6 c0 -11 1 -23 3 -27 1 -5 -45 -13 -103 -19 -58 -6 -113 -14 -122 -18
-13 -6 -15 -3 -11 13 6 22 11 24 111 41 35 6 73 15 85 20 33 13 37 12 37 -10z
m-791 -104 l33 -18 -83 -49 c-46 -27 -98 -65 -116 -85 -17 -19 -34 -31 -37
-26 -11 19 -36 127 -36 158 0 40 12 43 125 40 53 -2 91 -8 114 -20z m1229 18
c27 -8 29 -50 7 -133 -17 -66 -29 -80 -44 -53 -13 24 -92 83 -162 122 -51 27
-51 28 -28 40 12 7 34 16 48 21 32 9 147 11 179 3z m-1140 -142 l23 -61 64
-21 64 -21 130 68 129 68 139 -69 140 -69 54 18 c70 23 71 24 93 87 20 57 32
75 42 65 4 -4 -5 -40 -20 -80 l-27 -74 -75 -22 -75 -22 -57 35 c-73 44 -182
96 -203 96 -25 0 -132 -46 -195 -85 -67 -40 -87 -42 -164 -16 -54 19 -55 20
-82 88 -31 78 -33 86 -16 81 7 -3 23 -32 36 -66z m-87 -333 l57 -38 123 -3
123 -3 8 -40 c11 -49 19 -59 41 -43 15 12 16 19 5 68 -6 31 -8 68 -4 84 6 22
11 27 34 24 24 -3 27 -8 30 -43 2 -22 -2 -57 -8 -79 -10 -32 -9 -41 3 -53 12
-13 16 -12 29 1 14 13 14 21 0 70 -12 44 -13 61 -4 81 15 32 49 33 61 2 8 -21
-1 -106 -14 -126 -2 -5 2 -17 10 -27 15 -18 15 -18 29 -1 11 14 12 26 5 47 -6
15 -9 50 -7 76 3 45 5 49 30 52 37 4 46 -32 26 -104 -13 -45 -13 -57 -2 -71
12 -17 14 -17 30 -1 14 14 15 22 5 49 -12 35 -14 88 -5 113 3 9 16 16 29 16
31 0 39 -36 24 -112 -10 -50 -10 -61 2 -69 20 -12 39 17 39 58 l0 33 120 0
120 0 0 50 c0 28 5 50 10 50 13 0 13 -217 1 -225 -6 -3 -11 17 -13 47 l-3 53
-107 3 -108 3 0 -30 c0 -16 -8 -39 -19 -52 -17 -21 -21 -22 -46 -11 -21 10
-31 10 -41 1 -11 -9 -21 -9 -39 -1 -19 9 -31 9 -50 0 -18 -8 -28 -8 -39 1 -10
9 -20 9 -40 0 -22 -10 -29 -10 -42 3 -15 14 -19 14 -45 -1 -25 -14 -30 -14
-43 -1 -8 8 -19 31 -23 50 l-9 35 -104 3 -104 3 -82 -51 c-46 -27 -85 -50 -88
-50 -3 0 -6 50 -6 110 l0 111 23 -12 c12 -7 47 -29 78 -50z m1009 -55 c0 -49
-4 -84 -10 -84 -6 0 -10 37 -10 91 0 57 4 88 10 84 6 -3 10 -44 10 -91z m50 6
c0 -40 -4 -70 -10 -70 -6 0 -10 30 -10 70 0 40 4 70 10 70 6 0 10 -30 10 -70z
m50 -5 c0 -25 -4 -45 -10 -45 -5 0 -10 20 -10 45 0 25 5 45 10 45 6 0 10 -20
10 -45z m367 23 c6 -5 14 -21 18 -36 8 -32 21 -42 57 -42 35 0 42 -13 19 -34
-15 -13 -26 -15 -59 -8 -32 8 -43 6 -56 -7 -15 -15 -14 -18 16 -43 31 -25 32
-28 16 -44 -18 -19 -13 -21 -116 60 -34 27 -62 53 -62 58 0 16 73 100 95 108
21 9 52 4 72 -12z m-1852 -12 c55 -23 92 -126 45 -126 -13 0 -20 7 -20 19 0
30 -39 71 -68 71 -33 0 -72 -36 -72 -67 0 -24 40 -73 60 -73 5 0 10 -9 10 -20
0 -53 -104 14 -116 75 -8 45 19 99 59 119 40 19 59 20 102 2z m1535 -6 c0 -11
-4 -20 -10 -20 -5 0 -10 9 -10 20 0 11 5 20 10 20 6 0 10 -9 10 -20z m89 -164
c9 -11 2 -22 -36 -54 -41 -34 -46 -42 -34 -56 12 -14 16 -13 44 8 28 23 32 23
43 8 10 -14 8 -21 -17 -42 -27 -22 -29 -27 -17 -43 13 -17 16 -16 61 18 45 35
67 38 67 11 0 -13 -113 -106 -128 -106 -4 1 -35 39 -69 85 l-63 85 63 49 c34
28 65 50 68 51 4 0 12 -6 18 -14z m-1403 -38 c23 -17 47 -41 53 -55 16 -35 -5
-75 -46 -87 -27 -8 -32 -15 -38 -53 -7 -46 -15 -52 -35 -28 -8 10 -10 30 -6
59 6 37 4 46 -11 55 -15 8 -23 4 -45 -22 -25 -30 -28 -31 -44 -15 -16 16 -13
22 46 102 35 47 68 82 74 79 6 -4 30 -19 52 -35z m193 -117 c12 -8 11 -18 -7
-69 -29 -78 -28 -106 2 -120 35 -16 59 6 86 78 16 43 28 60 41 60 10 0 20 -4
24 -10 9 -15 -44 -133 -71 -157 -35 -31 -84 -30 -123 3 -44 36 -42 69 8 197
11 29 18 32 40 18z m966 -25 c19 -8 41 -28 49 -45 37 -70 6 -132 -84 -169
l-50 -21 -14 32 c-7 18 -25 60 -40 94 -14 34 -26 67 -26 72 0 10 93 49 118 50
7 1 28 -5 47 -13z m-579 -91 c23 -15 25 -19 12 -32 -13 -12 -19 -12 -51 3 -19
9 -42 14 -51 11 -29 -11 -16 -34 27 -46 73 -22 96 -60 62 -107 -27 -40 -121
-37 -159 5 -14 16 -15 20 -2 30 12 10 20 10 38 -3 12 -9 38 -16 56 -16 48 0
39 30 -14 50 -23 8 -49 21 -58 29 -22 19 -20 57 5 82 17 17 30 20 65 16 24 -2
56 -12 70 -22z m300 -75 c30 -52 54 -98 54 -102 0 -5 -11 -8 -25 -8 -18 0 -29
8 -37 26 -11 23 -15 25 -52 18 -42 -7 -56 -17 -56 -45 0 -10 -11 -19 -25 -21
-14 -3 -25 -1 -25 5 0 5 12 56 27 113 26 101 35 114 72 110 8 0 38 -44 67 -96z"/>
<path d="M1450 2715 c0 -22 4 -25 40 -25 36 0 40 3 40 25 0 23 -4 25 -40 25
-36 0 -40 -2 -40 -25z"/>
<path d="M1812 2655 l-23 -30 20 -9 c27 -12 33 -5 29 35 l-3 34 -23 -30z"/>
<path d="M2091 2509 c-17 -28 -29 -54 -26 -59 2 -4 18 -13 35 -20 28 -11 34
-11 58 7 36 26 40 68 11 99 -12 13 -28 24 -34 24 -7 0 -26 -23 -44 -51z"/>
<path d="M632 2363 c18 -42 23 -45 42 -24 17 18 16 20 -15 35 -41 21 -41 21
-27 -11z"/>
<path d="M1452 2141 c-12 -16 -39 -42 -61 -58 -38 -26 -41 -32 -41 -75 l0 -47
52 -16 c82 -24 78 -30 78 105 0 66 -1 120 -3 120 -2 0 -13 -13 -25 -29z"/>
<path d="M1620 2006 c0 -37 5 -42 28 -27 19 12 11 55 -10 59 -15 3 -18 -4 -18
-32z"/>
<path d="M1623 1858 c-20 -21 -23 -35 -23 -96 0 -40 4 -72 8 -72 20 0 43 77
40 134 l-3 58 -22 -24z"/>
<path d="M1360 1762 c0 -74 3 -91 27 -131 23 -39 27 -43 34 -26 4 11 8 65 8
120 l1 100 -35 11 -35 11 0 -85z"/>
<path d="M2490 2147 c-38 -19 -48 -61 -23 -95 27 -37 66 -40 98 -8 32 32 32
60 0 91 -27 28 -39 30 -75 12z"/>
<path d="M1354 865 c-4 -8 -3 -32 1 -52 8 -46 25 -27 25 30 0 37 -16 50 -26
22z"/>
<path d="M1437 868 c-7 -19 4 -78 14 -78 5 0 9 20 9 45 0 42 -12 60 -23 33z"/>
<path d="M1520 836 c0 -25 4 -47 9 -50 10 -6 24 71 16 85 -14 22 -25 6 -25
-35z"/>
<path d="M1607 874 c-10 -10 -8 -66 2 -82 5 -9 10 -2 14 24 6 37 -3 71 -16 58z"/>
<path d="M900 840 c0 -29 2 -30 45 -30 25 0 45 2 45 4 0 4 -78 56 -85 56 -3 0
-5 -13 -5 -30z"/>
<path d="M900 755 l0 -35 50 31 c28 17 50 33 50 35 0 2 -22 4 -50 4 l-50 0 0
-35z"/>
<path d="M2370 760 c-21 -30 -22 -32 -4 -45 17 -12 22 -11 42 8 25 24 26 60 1
65 -10 2 -26 -10 -39 -28z"/>
<path d="M764 559 c-18 -20 -18 -21 5 -40 37 -30 80 -22 66 13 -3 7 -16 21
-29 30 -23 16 -25 16 -42 -3z"/>
<path d="M1893 413 c-18 -7 -17 -14 12 -78 l24 -56 29 15 c86 45 25 156 -65
119z"/>
<path d="M1620 306 c0 -8 -3 -21 -6 -30 -4 -11 0 -16 14 -16 28 0 35 15 20 40
-15 23 -28 26 -28 6z"/>
</g>
</svg>
